<?xml version="1.0" encoding="utf-8"?>
<!-- Generator: Adobe Illustrator 28.3.0, SVG Export Plug-In . SVG Version: 6.00 Build 0)  -->
<svg version="1.1" id="Capa_1" xmlns="http://www.w3.org/2000/svg" xmlns:xlink="http://www.w3.org/1999/xlink" x="0px" y="0px"
	 viewBox="0 0 46 46" style="enable-background:new 0 0 46 46;" xml:space="preserve">
<style type="text/css">
	.st0{fill:none;stroke:#213264;stroke-width:2;stroke-miterlimit:10;}
</style>
<path class="st0" d="M14.2,9L10,14.6v19.6c0,0.7,0.3,1.5,0.8,2s1.2,0.8,2,0.8h19.6c0.7,0,1.5-0.3,2-0.8c0.5-0.5,0.8-1.2,0.8-2V14.6
	L31,9H14.2z"/>
<path class="st0" d="M28.2,20.2c0,1.5-0.6,2.9-1.6,4c-1.1,1.1-2.5,1.6-4,1.6c-1.5,0-2.9-0.6-4-1.6c-1.1-1.1-1.6-2.5-1.6-4"/>
<path class="st0" d="M10,14.6h25.2"/>
</svg>
