<?xml version="1.0" encoding="utf-8"?>
<!-- Generator: Adobe Illustrator 28.3.0, SVG Export Plug-In . SVG Version: 6.00 Build 0)  -->
<svg version="1.1" id="Capa_1" xmlns="http://www.w3.org/2000/svg" xmlns:xlink="http://www.w3.org/1999/xlink" x="0px" y="0px"
	 viewBox="0 0 24 23" style="enable-background:new 0 0 24 23;" xml:space="preserve">
<style type="text/css">
	.st0{fill:none;stroke:#213264;stroke-width:2;stroke-miterlimit:10;}
</style>
<path class="st0" d="M20,22c0.6,0,1-0.4,1-1s-0.4-1-1-1s-1,0.4-1,1S19.4,22,20,22z"/>
<path class="st0" d="M9,22c0.6,0,1-0.4,1-1s-0.4-1-1-1s-1,0.4-1,1S8.4,22,9,22z"/>
<path class="st0" d="M1,1h4l2.7,13.4c0.1,0.5,0.3,0.9,0.7,1.2C8.8,15.9,9.2,16,9.7,16h9.7c0.5,0,0.9-0.1,1.3-0.4
	c0.4-0.3,0.6-0.7,0.7-1.2L23,6H6"/>
</svg>
