<?xml version="1.0" encoding="utf-8"?>
<!-- Generator: Adobe Illustrator 28.1.0, SVG Export Plug-In . SVG Version: 6.00 Build 0)  -->
<svg version="1.1" id="Capa_1" xmlns="http://www.w3.org/2000/svg" xmlns:xlink="http://www.w3.org/1999/xlink" x="0px" y="0px"
	 viewBox="0 0 255 217" style="enable-background:new 0 0 255 217;" xml:space="preserve">
<style type="text/css">
	.st0{fill:#213264;}
</style>
<circle class="st0" cx="3.5" cy="3.5" r="3.5"/>
<circle class="st0" cx="34.5" cy="3.5" r="3.5"/>
<circle class="st0" cx="65.5" cy="3.5" r="3.5"/>
<circle class="st0" cx="96.5" cy="3.5" r="3.5"/>
<circle class="st0" cx="127.5" cy="3.5" r="3.5"/>
<circle class="st0" cx="158.5" cy="3.5" r="3.5"/>
<circle class="st0" cx="189.5" cy="3.5" r="3.5"/>
<circle class="st0" cx="220.5" cy="3.5" r="3.5"/>
<circle class="st0" cx="251.5" cy="3.5" r="3.5"/>
<circle class="st0" cx="3.5" cy="33.5" r="3.5"/>
<circle class="st0" cx="34.5" cy="33.5" r="3.5"/>
<circle class="st0" cx="65.5" cy="33.5" r="3.5"/>
<circle class="st0" cx="96.5" cy="33.5" r="3.5"/>
<circle class="st0" cx="127.5" cy="33.5" r="3.5"/>
<circle class="st0" cx="158.5" cy="33.5" r="3.5"/>
<circle class="st0" cx="189.5" cy="33.5" r="3.5"/>
<circle class="st0" cx="220.5" cy="33.5" r="3.5"/>
<circle class="st0" cx="251.5" cy="33.5" r="3.5"/>
<circle class="st0" cx="3.5" cy="63.5" r="3.5"/>
<circle class="st0" cx="34.5" cy="63.5" r="3.5"/>
<circle class="st0" cx="65.5" cy="63.5" r="3.5"/>
<circle class="st0" cx="96.5" cy="63.5" r="3.5"/>
<circle class="st0" cx="127.5" cy="63.5" r="3.5"/>
<circle class="st0" cx="158.5" cy="63.5" r="3.5"/>
<circle class="st0" cx="189.5" cy="63.5" r="3.5"/>
<circle class="st0" cx="220.5" cy="63.5" r="3.5"/>
<circle class="st0" cx="251.5" cy="63.5" r="3.5"/>
<circle class="st0" cx="3.5" cy="93.5" r="3.5"/>
<circle class="st0" cx="34.5" cy="93.5" r="3.5"/>
<circle class="st0" cx="65.5" cy="93.5" r="3.5"/>
<circle class="st0" cx="96.5" cy="93.5" r="3.5"/>
<circle class="st0" cx="127.5" cy="93.5" r="3.5"/>
<circle class="st0" cx="158.5" cy="93.5" r="3.5"/>
<circle class="st0" cx="189.5" cy="93.5" r="3.5"/>
<circle class="st0" cx="220.5" cy="93.5" r="3.5"/>
<circle class="st0" cx="251.5" cy="93.5" r="3.5"/>
<circle class="st0" cx="3.5" cy="123.5" r="3.5"/>
<circle class="st0" cx="34.5" cy="123.5" r="3.5"/>
<circle class="st0" cx="65.5" cy="123.5" r="3.5"/>
<circle class="st0" cx="96.5" cy="123.5" r="3.5"/>
<circle class="st0" cx="127.5" cy="123.5" r="3.5"/>
<circle class="st0" cx="158.5" cy="123.5" r="3.5"/>
<circle class="st0" cx="189.5" cy="123.5" r="3.5"/>
<circle class="st0" cx="220.5" cy="123.5" r="3.5"/>
<circle class="st0" cx="251.5" cy="123.5" r="3.5"/>
<circle class="st0" cx="3.5" cy="153.5" r="3.5"/>
<circle class="st0" cx="34.5" cy="153.5" r="3.5"/>
<circle class="st0" cx="65.5" cy="153.5" r="3.5"/>
<circle class="st0" cx="96.5" cy="153.5" r="3.5"/>
<circle class="st0" cx="127.5" cy="153.5" r="3.5"/>
<circle class="st0" cx="158.5" cy="153.5" r="3.5"/>
<circle class="st0" cx="189.5" cy="153.5" r="3.5"/>
<circle class="st0" cx="220.5" cy="153.5" r="3.5"/>
<circle class="st0" cx="251.5" cy="153.5" r="3.5"/>
<circle class="st0" cx="3.5" cy="183.5" r="3.5"/>
<circle class="st0" cx="34.5" cy="183.5" r="3.5"/>
<circle class="st0" cx="65.5" cy="183.5" r="3.5"/>
<circle class="st0" cx="96.5" cy="183.5" r="3.5"/>
<circle class="st0" cx="127.5" cy="183.5" r="3.5"/>
<circle class="st0" cx="158.5" cy="183.5" r="3.5"/>
<circle class="st0" cx="189.5" cy="183.5" r="3.5"/>
<circle class="st0" cx="220.5" cy="183.5" r="3.5"/>
<circle class="st0" cx="251.5" cy="183.5" r="3.5"/>
<circle class="st0" cx="3.5" cy="213.5" r="3.5"/>
<circle class="st0" cx="34.5" cy="213.5" r="3.5"/>
<circle class="st0" cx="65.5" cy="213.5" r="3.5"/>
<circle class="st0" cx="96.5" cy="213.5" r="3.5"/>
<circle class="st0" cx="127.5" cy="213.5" r="3.5"/>
<circle class="st0" cx="158.5" cy="213.5" r="3.5"/>
<circle class="st0" cx="189.5" cy="213.5" r="3.5"/>
<circle class="st0" cx="220.5" cy="213.5" r="3.5"/>
<circle class="st0" cx="251.5" cy="213.5" r="3.5"/>
</svg>
